<svg width="15" height="15" viewBox="0 0 15 15" fill="none" xmlns="http://www.w3.org/2000/svg">
    <g clip-path="url(#clip0_165_258)">
        <path fill-rule="evenodd" clip-rule="evenodd" d="M11.9759 0.0973713C12.4118 0.181181 12.6971 0.602421 12.6133 1.03824L12.0634 3.8983H14.1134C14.5573 3.8983 14.917 4.25808 14.917 4.70187C14.917 5.14568 14.5573 5.50545 14.1134 5.50545H11.7543L10.9871 9.49434H14.1134C14.5573 9.49434 14.917 9.85411 14.917 10.2979C14.917 10.7417 14.5573 11.1015 14.1134 11.1015H10.6781L10.0697 14.2652C9.9859 14.7009 9.56466 14.9864 9.12884 14.9025C8.69303 14.8187 8.40767 14.3975 8.49148 13.9617L9.04151 11.1015H5.08211L4.47371 14.2652C4.3899 14.7009 3.96866 14.9864 3.53284 14.9025C3.09703 14.8187 2.81168 14.3975 2.89548 13.9617L3.44551 11.1015H0.886579C0.44278 11.1015 0.0830078 10.7417 0.0830078 10.2979C0.0830078 9.85411 0.44278 9.49434 0.886579 9.49434H3.75458L4.52168 5.50545H0.886579C0.44278 5.50545 0.0830078 5.14568 0.0830078 4.70187C0.0830078 4.25808 0.44278 3.8983 0.886579 3.8983H4.83074L5.43912 0.734732C5.52293 0.298916 5.94417 0.0135608 6.37998 0.0973713C6.8158 0.181181 7.10115 0.602421 7.01734 1.03824L6.46733 3.8983H10.4267L11.0351 0.734732C11.1189 0.298916 11.5402 0.0135608 11.9759 0.0973713ZM6.15826 5.50545L5.39117 9.49434H9.35057L10.1177 5.50545H6.15826Z" fill="#CACACA"/>
    </g>
    <defs>
        <clipPath id="clip0_165_258">
            <rect width="15" height="15" fill="white"/>
        </clipPath>
    </defs>
</svg>
