<svg width="16" height="16" viewBox="0 0 16 16" fill="none" xmlns="http://www.w3.org/2000/svg">
    <path d="M6.79167 0.907407C7.12981 0.6443 7.55779 0.5 8 0.5C8.44221 0.5 8.8702 0.6443 9.20833 0.907407L14.8333 5.28895C15.2567 5.61748 15.5 6.10141 15.5 6.61227V14.1536C15.5 14.5107 15.3464 14.8532 15.0729 15.1056C14.7994 15.3581 14.4284 15.5 14.0417 15.5H11.5417C11.1549 15.5 10.784 15.3581 10.5105 15.1056C10.237 14.8532 10.0833 14.5107 10.0833 14.1536V10.3068C10.0833 10.1537 10.0175 10.007 9.90027 9.89875C9.78306 9.79054 9.62409 9.72974 9.45833 9.72974H6.54167C6.37591 9.72974 6.21694 9.79054 6.09973 9.89875C5.98252 10.007 5.91667 10.1537 5.91667 10.3068V14.1536C5.91667 14.5107 5.76302 14.8532 5.48953 15.1056C5.21604 15.3581 4.84511 15.5 4.45833 15.5H1.95833C1.76682 15.5 1.57719 15.4652 1.40025 15.3975C1.22332 15.3298 1.06255 15.2307 0.927136 15.1056C0.791717 14.9806 0.684297 14.8322 0.611009 14.6688C0.537721 14.5055 0.5 14.3304 0.5 14.1536V6.6115C0.5 6.10141 0.743333 5.61748 1.16667 5.28819L6.79167 0.907407Z" fill="#CACACA"/>
</svg>
