<svg width="15" height="15" viewBox="0 0 15 15" fill="none" xmlns="http://www.w3.org/2000/svg">
    <path d="M2.47541 2.01566C2.26154 2.1182 1.89533 2.49027 1.5174 2.98832C0.735177 4.02835 0.266427 5.16507 0.0701376 6.51859C-0.00896398 7.04593 -0.000174915 8.02445 0.084786 8.58109C0.298653 9.98148 0.855294 11.2442 1.71955 12.2813C2.09748 12.7354 2.31135 12.9317 2.50178 13.0049C3.07307 13.2188 3.68244 12.8789 3.77326 12.2989C3.80256 12.1084 3.77033 11.8711 3.69416 11.7217C3.66193 11.6631 3.5301 11.4932 3.39826 11.3496C2.44025 10.3037 1.93928 9.09964 1.88361 7.70511C1.84846 6.78226 2.0301 5.90628 2.4344 5.06839C2.70393 4.51175 2.99983 4.07523 3.40412 3.6475C3.65608 3.38089 3.73518 3.24906 3.78205 3.01468C3.82307 2.80667 3.78205 2.59281 3.66193 2.37894C3.43342 1.9805 2.89729 1.81644 2.47541 2.01566Z" fill="#CACACA"/>
    <path d="M11.8064 1.9835C11.7214 2.0128 11.6101 2.09776 11.4959 2.20909C11.2878 2.4171 11.2146 2.59581 11.2146 2.88878C11.2175 3.14952 11.3084 3.33409 11.5867 3.63585C12.0115 4.09288 12.2986 4.51475 12.5652 5.06847C13.2039 6.38975 13.2976 7.90733 12.8318 9.28722C12.5623 10.087 12.196 10.7023 11.6013 11.3497C11.3289 11.6485 11.2615 11.7628 11.2263 11.9942C11.1121 12.7179 11.8035 13.2657 12.5007 13.0021C12.949 12.8351 13.8923 11.5929 14.3406 10.5792C15.3894 8.21202 15.1726 5.53722 13.7576 3.36925C13.3796 2.7921 12.7937 2.13878 12.5476 2.01866C12.366 1.92784 12.0027 1.91319 11.8064 1.9835Z" fill="#CACACA"/>
    <path d="M4.77539 4.17766C4.57031 4.25383 4.4209 4.37102 4.19824 4.63469C3.68848 5.23527 3.38672 5.84465 3.21387 6.61516C3.16113 6.85539 3.15234 6.99016 3.15234 7.49992C3.15234 8.15031 3.1875 8.39641 3.35449 8.89738C3.58301 9.57414 4.14844 10.4384 4.53516 10.6933C5.2002 11.1327 6.06152 10.6405 5.99707 9.85832C5.97949 9.61516 5.89746 9.45402 5.66309 9.19328C5.41699 8.91789 5.23828 8.61027 5.12109 8.26164C5.03027 7.99211 5.02734 7.96574 5.02734 7.49992C5.02734 7.0341 5.03027 7.00774 5.12109 6.7382C5.23828 6.38957 5.41699 6.08195 5.66309 5.80656C5.93262 5.50774 5.98828 5.37883 5.99121 5.06828C5.99121 4.77531 5.92383 4.60246 5.73047 4.4091C5.4873 4.16887 5.07715 4.06926 4.77539 4.17766Z" fill="#CACACA"/>
    <path d="M9.63858 4.17477C9.41592 4.24801 9.22842 4.415 9.11123 4.64059C9.01748 4.82223 9.00869 4.86618 9.00869 5.08004C9.01162 5.37301 9.07315 5.51657 9.31631 5.78317C9.77041 6.28414 9.95498 6.73532 9.98135 7.39743C10.0077 8.11813 9.81436 8.6484 9.32217 9.20797C9.10537 9.45114 9.02041 9.62692 8.9999 9.86129C8.9501 10.4941 9.56533 11.0068 10.1688 10.831C10.3974 10.7636 10.5673 10.6406 10.7987 10.3681C11.5077 9.53903 11.8651 8.57809 11.8651 7.49996C11.8651 6.41012 11.5048 5.45504 10.7782 4.60543C10.494 4.27438 10.286 4.15426 9.97842 4.13961C9.84951 4.13375 9.72061 4.1484 9.63858 4.17477Z" fill="#CACACA"/>
    <path d="M7.28551 6.26958C6.63512 6.38383 6.16344 7.03716 6.26598 7.67876C6.37731 8.36137 7.01891 8.83891 7.67809 8.73344C8.50426 8.59868 8.97301 7.73442 8.62731 6.98149C8.39586 6.47173 7.83336 6.1729 7.28551 6.26958Z" fill="#CACACA"/>
</svg>
