<svg width="15" height="15" viewBox="0 0 15 15" fill="none" xmlns="http://www.w3.org/2000/svg">
    <mask id="path-1-inside-1_170_279" fill="white">
        <path d="M7.38835 0.00662422C6.4085 0.0952339 5.61933 0.303008 4.84777 0.67578L4.58374 0.804111L4.47226 0.70328C4.31384 0.559671 4.11142 0.495505 3.87085 0.513839C3.53935 0.538282 3.28705 0.718557 3.1345 1.03327C3.03768 1.23799 3.02008 1.48243 3.08462 1.7116L3.11983 1.82771L2.76192 2.20353C2.43921 2.5427 2.40107 2.59158 2.40107 2.68936C2.40107 2.76575 2.42161 2.81158 2.47735 2.85741C2.6211 2.97352 2.66804 2.94908 3.04355 2.55492L3.39266 2.18826L3.55108 2.26464C3.76524 2.36853 4.08208 2.37159 4.2933 2.2677C4.44292 2.19742 4.61014 2.0477 4.69229 1.91632L4.73629 1.84298L5.02966 1.94382C5.63107 2.15159 6.32929 2.46936 6.76348 2.73214L6.9747 2.86047L6.9571 3.02241C6.94536 3.12935 6.9571 3.24546 6.98937 3.35546L7.03631 3.52657L6.54345 4.04295C6.27355 4.32406 5.92444 4.72127 5.76895 4.92294L5.49025 5.2896L5.26142 5.28043C5.05607 5.27126 5.01793 5.27738 4.84777 5.36598C4.73923 5.42098 4.62481 5.50654 4.57787 5.5707C4.53387 5.62876 4.47813 5.70209 4.45466 5.73265C4.41652 5.78153 4.33144 5.79376 3.82391 5.82431C3.15796 5.86403 2.72084 5.91292 2.09597 6.02597C1.67351 6.10236 1.65885 6.10236 1.62951 6.04736C1.58844 5.97403 1.43295 5.81209 1.36254 5.77237C1.3068 5.74181 1.30974 5.72348 1.44469 5.29571C1.56497 4.90766 1.83487 4.29045 2.09303 3.80462C2.18398 3.63657 2.16051 3.53268 2.02262 3.45935C1.8466 3.36157 1.75859 3.45629 1.45055 4.08267C1.2628 4.46461 1.05157 5.01155 0.963561 5.35376L0.896086 5.60431L0.731799 5.63793C0.262408 5.7357 -0.0397629 6.14819 0.00424255 6.63402C0.0365132 6.98235 0.238938 7.27262 0.538175 7.40401L0.66139 7.45595L0.678992 7.90206C0.749401 9.7323 1.58257 11.6451 2.8646 12.9192C3.09636 13.1514 3.10222 13.1575 3.06995 13.2522C3.02301 13.3928 3.05529 13.732 3.13156 13.8847C3.26358 14.1536 3.53641 14.3583 3.81511 14.3981C4.01754 14.4286 4.19356 14.3889 4.37251 14.2758L4.53387 14.175L4.70696 14.2667C5.32596 14.5936 6.20021 14.8594 6.9923 14.9633C7.37075 15.0122 8.3154 15.0122 8.69385 14.9633C9.48594 14.8594 10.3807 14.5845 11.0261 14.2422L11.1582 14.172L11.2579 14.2606C11.4779 14.45 11.8593 14.4989 12.1292 14.3675C12.4548 14.2117 12.6426 13.9367 12.6631 13.5914C12.6719 13.4875 12.6602 13.3409 12.6397 13.2706L12.6074 13.1392L12.9096 12.8184C14.0273 11.6359 14.7021 10.2334 14.9456 8.57427C15.0101 8.14039 15.0189 6.99152 14.9632 6.57291C14.8253 5.57376 14.5436 4.64794 14.1505 3.92379C14.0332 3.70379 14.0214 3.67018 14.0596 3.6274C14.2151 3.44713 14.2708 3.0438 14.1769 2.75964C14.1153 2.5702 13.907 2.33492 13.7193 2.23715C13.5491 2.14854 13.2792 2.1302 13.0768 2.19131L12.9653 2.22798L12.7335 2.00798L12.4988 1.78799L12.5135 1.53438C12.5253 1.34494 12.5165 1.24105 12.4812 1.12494C12.3786 0.810223 12.0588 0.547449 11.7302 0.516894C11.4985 0.495505 11.3899 0.51995 11.1875 0.645226L11.0173 0.755224L10.6917 0.611615C10.0433 0.327453 9.44781 0.153289 8.79653 0.0616236C8.48555 0.0188465 7.62892 -0.0147648 7.38835 0.00662422ZM8.78773 0.523005C9.395 0.614671 9.98761 0.788834 10.5186 1.03327L10.7914 1.1555L10.7738 1.28383C10.7621 1.35105 10.7504 1.41216 10.7474 1.41827C10.7416 1.42438 10.5655 1.48855 10.3543 1.56493C9.75585 1.77576 9.13097 2.07215 8.6029 2.38992L8.48555 2.46325L8.36234 2.36853C8.0543 2.13326 7.62011 2.13326 7.30914 2.36853L7.19179 2.45714L7.06271 2.38075C6.54638 2.06909 5.61053 1.64438 5.06487 1.47327C4.8155 1.39383 4.8067 1.38771 4.8067 1.30216C4.8067 1.21966 4.82724 1.20133 5.00619 1.10661C5.62227 0.785779 6.57279 0.529117 7.38835 0.464951C7.68759 0.443562 8.46502 0.474117 8.78773 0.523005ZM4.13195 1.02105C4.43999 1.17994 4.44879 1.65354 4.14955 1.83993C4.01167 1.92548 3.80631 1.91326 3.68016 1.80937C3.53054 1.69326 3.47774 1.56799 3.49241 1.38771C3.50121 1.30521 3.53348 1.19827 3.56575 1.1555C3.63909 1.04855 3.79751 0.966054 3.92659 0.966054C3.98233 0.966054 4.07621 0.990499 4.13195 1.02105ZM11.871 1.02716C12.1527 1.20744 12.1556 1.65965 11.8769 1.83076C11.7772 1.89187 11.5835 1.90409 11.4633 1.85826C11.2902 1.78799 11.1728 1.53743 11.2139 1.32966C11.2696 1.03022 11.6217 0.868278 11.871 1.02716ZM10.9997 2.0477C11.1787 2.24937 11.3723 2.34409 11.6246 2.34714C11.8212 2.3502 11.9943 2.30437 12.1204 2.2127C12.1644 2.17909 12.2113 2.1577 12.226 2.16381C12.2407 2.16992 12.3346 2.25548 12.4343 2.35325L12.6162 2.53353L12.5458 2.68631C12.493 2.81158 12.4783 2.89102 12.4812 3.08658C12.4812 3.38907 12.5663 3.58157 12.7776 3.77407L12.9154 3.9024L12.804 4.25989C12.5517 5.06349 12.2025 5.89764 11.7977 6.65846C11.5777 7.07401 11.5689 7.08318 11.4867 7.06485C11.4398 7.05568 11.3518 7.04651 11.2931 7.04651C11.1875 7.04651 11.1875 7.04346 11.0261 6.71957C10.5157 5.6807 9.74998 4.6235 8.94908 3.84129L8.63811 3.53574L8.67918 3.41963C8.69971 3.35546 8.72025 3.19963 8.72025 3.07435L8.72318 2.84825L8.84053 2.77491C9.06643 2.63742 9.6473 2.34103 9.90253 2.23103C10.1519 2.12104 10.7797 1.88882 10.8296 1.88576C10.8442 1.88271 10.9205 1.95604 10.9997 2.0477ZM13.5726 2.67714C13.954 2.92158 13.7897 3.53268 13.3408 3.53268C13.1003 3.53268 12.9037 3.32491 12.9037 3.07435C12.9037 2.72297 13.2851 2.49686 13.5726 2.67714ZM8.0631 2.7138C8.22152 2.82686 8.27433 2.92769 8.27433 3.10185C8.27433 3.37685 8.09831 3.5724 7.84601 3.5724C7.50863 3.5724 7.29741 3.22713 7.44409 2.91547C7.55851 2.66492 7.85774 2.5702 8.0631 2.7138ZM7.49397 3.96351C7.68759 4.05517 7.96336 4.05212 8.18925 3.96351L8.35647 3.89323L8.63224 4.156C8.90801 4.42183 9.29819 4.86183 9.60329 5.25904C9.87906 5.61348 10.3837 6.42625 10.5861 6.83874C10.768 7.20846 10.7738 7.22984 10.7269 7.28179C10.677 7.33068 10.6624 7.32762 10.4042 7.20234C9.42727 6.72874 8.44155 6.37125 7.47636 6.14514C7.09792 6.05653 6.30289 5.91598 6.17967 5.91598C6.11806 5.91598 6.08873 5.89153 6.05059 5.81514C6.02418 5.7632 5.97138 5.67459 5.93617 5.62265L5.8687 5.53098L6.13566 5.1796C6.3997 4.83738 7.26807 3.89934 7.32381 3.89934C7.33848 3.89934 7.41476 3.9299 7.49397 3.96351ZM13.819 4.25072C14.1593 4.91988 14.3999 5.72348 14.5231 6.60347C14.5818 7.01901 14.573 8.10983 14.5084 8.54371C14.4498 8.91954 14.2884 9.61008 14.2092 9.82091L14.1593 9.94925L13.9334 9.73536C13.5286 9.34731 12.8949 8.80037 12.537 8.53149L12.1879 8.26872L12.1967 8.01511C12.2025 7.789 12.1937 7.74622 12.1204 7.59651C12.0735 7.50484 12.0177 7.40095 11.9972 7.36429C11.962 7.30929 11.9796 7.2604 12.1967 6.85707C12.5927 6.11458 12.9536 5.25293 13.2205 4.41267L13.3526 3.99406L13.4728 3.98184C13.5374 3.97573 13.6137 3.97267 13.6371 3.97267C13.6606 3.97573 13.7427 4.101 13.819 4.25072ZM5.47265 5.79376C5.5812 5.86098 5.68681 6.05653 5.68681 6.18181C5.68681 6.32236 5.56653 6.53013 5.45211 6.5943C5.24382 6.70735 4.97686 6.64013 4.85951 6.44152C4.73336 6.22764 4.79497 5.93125 5.00033 5.7907C5.11474 5.71126 5.3465 5.71431 5.47265 5.79376ZM1.11318 6.14819C1.23639 6.21236 1.3156 6.37125 1.3156 6.54847C1.3156 7.13818 0.497103 7.1779 0.441363 6.58819C0.406159 6.20625 0.775804 5.96486 1.11318 6.14819ZM4.37545 6.39264C4.38718 6.45986 4.43999 6.59124 4.4928 6.68291L4.58961 6.84791L4.45172 7.15346C4.04981 8.05483 3.76524 9.09676 3.61269 10.2242C3.57162 10.5267 3.55988 10.814 3.55988 11.6176V12.632L3.46307 12.6961C3.37506 12.7573 3.36332 12.7573 3.29585 12.7114C3.1873 12.6381 2.77952 12.1584 2.55069 11.8314C1.73806 10.6887 1.18652 9.13648 1.11905 7.81039L1.10144 7.45901L1.25693 7.38567C1.53856 7.25429 1.72339 6.99763 1.74979 6.7043C1.76446 6.53624 1.69992 6.56069 2.44508 6.45375C3.14916 6.35291 4.04394 6.25819 4.2493 6.2643C4.34318 6.26736 4.35198 6.27653 4.37545 6.39264ZM6.86029 6.4843C7.95456 6.69207 9.12217 7.08012 10.1108 7.56901L10.4453 7.734L10.4482 7.97844C10.4541 8.17094 10.4687 8.25649 10.5303 8.38177L10.6037 8.5376L10.2986 8.91648C9.72357 9.61925 8.8904 10.4442 8.19219 10.9942C7.28274 11.7123 6.14447 12.3814 5.0766 12.8245L4.68935 12.9864L4.59841 12.8734C4.49573 12.742 4.31677 12.6259 4.14369 12.58L4.0234 12.5464L4.0058 12.2959C3.97647 11.9048 3.98233 11.0126 4.01754 10.6215C4.11142 9.54897 4.38132 8.46427 4.79497 7.48345L4.95925 7.09235H5.22915C5.45211 7.09235 5.51666 7.08012 5.6252 7.02207C5.81002 6.91818 6.00071 6.70124 6.05939 6.52097L6.1122 6.36819L6.28822 6.38958C6.38503 6.39875 6.64319 6.44152 6.86029 6.4843ZM11.5835 7.59651C11.8446 7.789 11.8124 8.229 11.5249 8.38177C11.3664 8.46732 11.2843 8.47038 11.1288 8.39094C10.8149 8.23205 10.7944 7.77067 11.0965 7.57817C11.2462 7.48345 11.4398 7.48956 11.5835 7.59651ZM12.2378 8.87065C12.7746 9.27398 13.3496 9.78119 13.7398 10.1906L13.9716 10.4381L13.863 10.6703C13.5344 11.3609 12.9418 12.1859 12.4431 12.6503L12.3199 12.7634L12.1996 12.6992C12.0852 12.6381 12.0764 12.6259 12.094 12.5373C12.1057 12.4823 12.1204 12.1828 12.1321 11.8712L12.1497 11.2998L12.0735 11.2203C11.9796 11.1226 11.8652 11.1195 11.7772 11.2112C11.7156 11.2784 11.7097 11.312 11.6891 11.8589C11.6803 12.1798 11.6627 12.4731 11.6539 12.5159C11.6422 12.577 11.6041 12.6075 11.4867 12.6503C11.3782 12.69 11.2843 12.7573 11.1699 12.8795C10.9704 13.0934 10.9 13.2736 10.9117 13.5731L10.9176 13.7778L10.7504 13.8664C10.4981 13.9978 10.0257 14.1842 9.67663 14.2881C8.15698 14.7433 6.46717 14.6089 5.0414 13.9184L4.78323 13.7931L4.7979 13.6189C4.8067 13.5242 4.82137 13.4386 4.8331 13.4295C4.84191 13.4172 5.0414 13.3317 5.27609 13.2339C6.69013 12.6473 8.06897 11.7673 9.20724 10.7223C9.66197 10.3037 10.3426 9.57953 10.6829 9.15176L10.9411 8.82787L11.0936 8.87065C11.1758 8.89204 11.2726 8.91037 11.3078 8.91037C11.3664 8.91037 11.3811 8.94093 11.4369 9.18842C11.4691 9.3412 11.5249 9.60703 11.5542 9.77814C11.6217 10.1631 11.6275 10.1815 11.7273 10.2242C11.8182 10.2609 11.9268 10.2304 11.9913 10.1509C12.0471 10.0806 12.0177 9.79647 11.8945 9.2312L11.7948 8.77288L11.8564 8.72093C11.8916 8.69038 11.9297 8.66593 11.9444 8.66593C11.9561 8.66593 12.0881 8.7576 12.2378 8.87065ZM4.13195 13.075C4.44879 13.2492 4.44879 13.7197 4.13195 13.8939C3.92659 14.01 3.66843 13.9275 3.54815 13.7075C3.44253 13.512 3.47774 13.292 3.63909 13.1361C3.78578 12.9925 3.94713 12.9711 4.13195 13.075ZM12.0705 13.1575C12.1791 13.2675 12.2289 13.3806 12.2289 13.5303C12.2289 13.9886 11.6422 14.1536 11.4046 13.7625C11.3576 13.6831 11.3488 13.625 11.3576 13.4814C11.3664 13.3164 11.3782 13.292 11.4926 13.1789C11.6158 13.0598 11.6217 13.0598 11.8036 13.072C11.9532 13.0811 12.0089 13.0995 12.0705 13.1575Z"/>
    </mask>
    <path d="M7.38835 0.00662422C6.4085 0.0952339 5.61933 0.303008 4.84777 0.67578L4.58374 0.804111L4.47226 0.70328C4.31384 0.559671 4.11142 0.495505 3.87085 0.513839C3.53935 0.538282 3.28705 0.718557 3.1345 1.03327C3.03768 1.23799 3.02008 1.48243 3.08462 1.7116L3.11983 1.82771L2.76192 2.20353C2.43921 2.5427 2.40107 2.59158 2.40107 2.68936C2.40107 2.76575 2.42161 2.81158 2.47735 2.85741C2.6211 2.97352 2.66804 2.94908 3.04355 2.55492L3.39266 2.18826L3.55108 2.26464C3.76524 2.36853 4.08208 2.37159 4.2933 2.2677C4.44292 2.19742 4.61014 2.0477 4.69229 1.91632L4.73629 1.84298L5.02966 1.94382C5.63107 2.15159 6.32929 2.46936 6.76348 2.73214L6.9747 2.86047L6.9571 3.02241C6.94536 3.12935 6.9571 3.24546 6.98937 3.35546L7.03631 3.52657L6.54345 4.04295C6.27355 4.32406 5.92444 4.72127 5.76895 4.92294L5.49025 5.2896L5.26142 5.28043C5.05607 5.27126 5.01793 5.27738 4.84777 5.36598C4.73923 5.42098 4.62481 5.50654 4.57787 5.5707C4.53387 5.62876 4.47813 5.70209 4.45466 5.73265C4.41652 5.78153 4.33144 5.79376 3.82391 5.82431C3.15796 5.86403 2.72084 5.91292 2.09597 6.02597C1.67351 6.10236 1.65885 6.10236 1.62951 6.04736C1.58844 5.97403 1.43295 5.81209 1.36254 5.77237C1.3068 5.74181 1.30974 5.72348 1.44469 5.29571C1.56497 4.90766 1.83487 4.29045 2.09303 3.80462C2.18398 3.63657 2.16051 3.53268 2.02262 3.45935C1.8466 3.36157 1.75859 3.45629 1.45055 4.08267C1.2628 4.46461 1.05157 5.01155 0.963561 5.35376L0.896086 5.60431L0.731799 5.63793C0.262408 5.7357 -0.0397629 6.14819 0.00424255 6.63402C0.0365132 6.98235 0.238938 7.27262 0.538175 7.40401L0.66139 7.45595L0.678992 7.90206C0.749401 9.7323 1.58257 11.6451 2.8646 12.9192C3.09636 13.1514 3.10222 13.1575 3.06995 13.2522C3.02301 13.3928 3.05529 13.732 3.13156 13.8847C3.26358 14.1536 3.53641 14.3583 3.81511 14.3981C4.01754 14.4286 4.19356 14.3889 4.37251 14.2758L4.53387 14.175L4.70696 14.2667C5.32596 14.5936 6.20021 14.8594 6.9923 14.9633C7.37075 15.0122 8.3154 15.0122 8.69385 14.9633C9.48594 14.8594 10.3807 14.5845 11.0261 14.2422L11.1582 14.172L11.2579 14.2606C11.4779 14.45 11.8593 14.4989 12.1292 14.3675C12.4548 14.2117 12.6426 13.9367 12.6631 13.5914C12.6719 13.4875 12.6602 13.3409 12.6397 13.2706L12.6074 13.1392L12.9096 12.8184C14.0273 11.6359 14.7021 10.2334 14.9456 8.57427C15.0101 8.14039 15.0189 6.99152 14.9632 6.57291C14.8253 5.57376 14.5436 4.64794 14.1505 3.92379C14.0332 3.70379 14.0214 3.67018 14.0596 3.6274C14.2151 3.44713 14.2708 3.0438 14.1769 2.75964C14.1153 2.5702 13.907 2.33492 13.7193 2.23715C13.5491 2.14854 13.2792 2.1302 13.0768 2.19131L12.9653 2.22798L12.7335 2.00798L12.4988 1.78799L12.5135 1.53438C12.5253 1.34494 12.5165 1.24105 12.4812 1.12494C12.3786 0.810223 12.0588 0.547449 11.7302 0.516894C11.4985 0.495505 11.3899 0.51995 11.1875 0.645226L11.0173 0.755224L10.6917 0.611615C10.0433 0.327453 9.44781 0.153289 8.79653 0.0616236C8.48555 0.0188465 7.62892 -0.0147648 7.38835 0.00662422ZM8.78773 0.523005C9.395 0.614671 9.98761 0.788834 10.5186 1.03327L10.7914 1.1555L10.7738 1.28383C10.7621 1.35105 10.7504 1.41216 10.7474 1.41827C10.7416 1.42438 10.5655 1.48855 10.3543 1.56493C9.75585 1.77576 9.13097 2.07215 8.6029 2.38992L8.48555 2.46325L8.36234 2.36853C8.0543 2.13326 7.62011 2.13326 7.30914 2.36853L7.19179 2.45714L7.06271 2.38075C6.54638 2.06909 5.61053 1.64438 5.06487 1.47327C4.8155 1.39383 4.8067 1.38771 4.8067 1.30216C4.8067 1.21966 4.82724 1.20133 5.00619 1.10661C5.62227 0.785779 6.57279 0.529117 7.38835 0.464951C7.68759 0.443562 8.46502 0.474117 8.78773 0.523005ZM4.13195 1.02105C4.43999 1.17994 4.44879 1.65354 4.14955 1.83993C4.01167 1.92548 3.80631 1.91326 3.68016 1.80937C3.53054 1.69326 3.47774 1.56799 3.49241 1.38771C3.50121 1.30521 3.53348 1.19827 3.56575 1.1555C3.63909 1.04855 3.79751 0.966054 3.92659 0.966054C3.98233 0.966054 4.07621 0.990499 4.13195 1.02105ZM11.871 1.02716C12.1527 1.20744 12.1556 1.65965 11.8769 1.83076C11.7772 1.89187 11.5835 1.90409 11.4633 1.85826C11.2902 1.78799 11.1728 1.53743 11.2139 1.32966C11.2696 1.03022 11.6217 0.868278 11.871 1.02716ZM10.9997 2.0477C11.1787 2.24937 11.3723 2.34409 11.6246 2.34714C11.8212 2.3502 11.9943 2.30437 12.1204 2.2127C12.1644 2.17909 12.2113 2.1577 12.226 2.16381C12.2407 2.16992 12.3346 2.25548 12.4343 2.35325L12.6162 2.53353L12.5458 2.68631C12.493 2.81158 12.4783 2.89102 12.4812 3.08658C12.4812 3.38907 12.5663 3.58157 12.7776 3.77407L12.9154 3.9024L12.804 4.25989C12.5517 5.06349 12.2025 5.89764 11.7977 6.65846C11.5777 7.07401 11.5689 7.08318 11.4867 7.06485C11.4398 7.05568 11.3518 7.04651 11.2931 7.04651C11.1875 7.04651 11.1875 7.04346 11.0261 6.71957C10.5157 5.6807 9.74998 4.6235 8.94908 3.84129L8.63811 3.53574L8.67918 3.41963C8.69971 3.35546 8.72025 3.19963 8.72025 3.07435L8.72318 2.84825L8.84053 2.77491C9.06643 2.63742 9.6473 2.34103 9.90253 2.23103C10.1519 2.12104 10.7797 1.88882 10.8296 1.88576C10.8442 1.88271 10.9205 1.95604 10.9997 2.0477ZM13.5726 2.67714C13.954 2.92158 13.7897 3.53268 13.3408 3.53268C13.1003 3.53268 12.9037 3.32491 12.9037 3.07435C12.9037 2.72297 13.2851 2.49686 13.5726 2.67714ZM8.0631 2.7138C8.22152 2.82686 8.27433 2.92769 8.27433 3.10185C8.27433 3.37685 8.09831 3.5724 7.84601 3.5724C7.50863 3.5724 7.29741 3.22713 7.44409 2.91547C7.55851 2.66492 7.85774 2.5702 8.0631 2.7138ZM7.49397 3.96351C7.68759 4.05517 7.96336 4.05212 8.18925 3.96351L8.35647 3.89323L8.63224 4.156C8.90801 4.42183 9.29819 4.86183 9.60329 5.25904C9.87906 5.61348 10.3837 6.42625 10.5861 6.83874C10.768 7.20846 10.7738 7.22984 10.7269 7.28179C10.677 7.33068 10.6624 7.32762 10.4042 7.20234C9.42727 6.72874 8.44155 6.37125 7.47636 6.14514C7.09792 6.05653 6.30289 5.91598 6.17967 5.91598C6.11806 5.91598 6.08873 5.89153 6.05059 5.81514C6.02418 5.7632 5.97138 5.67459 5.93617 5.62265L5.8687 5.53098L6.13566 5.1796C6.3997 4.83738 7.26807 3.89934 7.32381 3.89934C7.33848 3.89934 7.41476 3.9299 7.49397 3.96351ZM13.819 4.25072C14.1593 4.91988 14.3999 5.72348 14.5231 6.60347C14.5818 7.01901 14.573 8.10983 14.5084 8.54371C14.4498 8.91954 14.2884 9.61008 14.2092 9.82091L14.1593 9.94925L13.9334 9.73536C13.5286 9.34731 12.8949 8.80037 12.537 8.53149L12.1879 8.26872L12.1967 8.01511C12.2025 7.789 12.1937 7.74622 12.1204 7.59651C12.0735 7.50484 12.0177 7.40095 11.9972 7.36429C11.962 7.30929 11.9796 7.2604 12.1967 6.85707C12.5927 6.11458 12.9536 5.25293 13.2205 4.41267L13.3526 3.99406L13.4728 3.98184C13.5374 3.97573 13.6137 3.97267 13.6371 3.97267C13.6606 3.97573 13.7427 4.101 13.819 4.25072ZM5.47265 5.79376C5.5812 5.86098 5.68681 6.05653 5.68681 6.18181C5.68681 6.32236 5.56653 6.53013 5.45211 6.5943C5.24382 6.70735 4.97686 6.64013 4.85951 6.44152C4.73336 6.22764 4.79497 5.93125 5.00033 5.7907C5.11474 5.71126 5.3465 5.71431 5.47265 5.79376ZM1.11318 6.14819C1.23639 6.21236 1.3156 6.37125 1.3156 6.54847C1.3156 7.13818 0.497103 7.1779 0.441363 6.58819C0.406159 6.20625 0.775804 5.96486 1.11318 6.14819ZM4.37545 6.39264C4.38718 6.45986 4.43999 6.59124 4.4928 6.68291L4.58961 6.84791L4.45172 7.15346C4.04981 8.05483 3.76524 9.09676 3.61269 10.2242C3.57162 10.5267 3.55988 10.814 3.55988 11.6176V12.632L3.46307 12.6961C3.37506 12.7573 3.36332 12.7573 3.29585 12.7114C3.1873 12.6381 2.77952 12.1584 2.55069 11.8314C1.73806 10.6887 1.18652 9.13648 1.11905 7.81039L1.10144 7.45901L1.25693 7.38567C1.53856 7.25429 1.72339 6.99763 1.74979 6.7043C1.76446 6.53624 1.69992 6.56069 2.44508 6.45375C3.14916 6.35291 4.04394 6.25819 4.2493 6.2643C4.34318 6.26736 4.35198 6.27653 4.37545 6.39264ZM6.86029 6.4843C7.95456 6.69207 9.12217 7.08012 10.1108 7.56901L10.4453 7.734L10.4482 7.97844C10.4541 8.17094 10.4687 8.25649 10.5303 8.38177L10.6037 8.5376L10.2986 8.91648C9.72357 9.61925 8.8904 10.4442 8.19219 10.9942C7.28274 11.7123 6.14447 12.3814 5.0766 12.8245L4.68935 12.9864L4.59841 12.8734C4.49573 12.742 4.31677 12.6259 4.14369 12.58L4.0234 12.5464L4.0058 12.2959C3.97647 11.9048 3.98233 11.0126 4.01754 10.6215C4.11142 9.54897 4.38132 8.46427 4.79497 7.48345L4.95925 7.09235H5.22915C5.45211 7.09235 5.51666 7.08012 5.6252 7.02207C5.81002 6.91818 6.00071 6.70124 6.05939 6.52097L6.1122 6.36819L6.28822 6.38958C6.38503 6.39875 6.64319 6.44152 6.86029 6.4843ZM11.5835 7.59651C11.8446 7.789 11.8124 8.229 11.5249 8.38177C11.3664 8.46732 11.2843 8.47038 11.1288 8.39094C10.8149 8.23205 10.7944 7.77067 11.0965 7.57817C11.2462 7.48345 11.4398 7.48956 11.5835 7.59651ZM12.2378 8.87065C12.7746 9.27398 13.3496 9.78119 13.7398 10.1906L13.9716 10.4381L13.863 10.6703C13.5344 11.3609 12.9418 12.1859 12.4431 12.6503L12.3199 12.7634L12.1996 12.6992C12.0852 12.6381 12.0764 12.6259 12.094 12.5373C12.1057 12.4823 12.1204 12.1828 12.1321 11.8712L12.1497 11.2998L12.0735 11.2203C11.9796 11.1226 11.8652 11.1195 11.7772 11.2112C11.7156 11.2784 11.7097 11.312 11.6891 11.8589C11.6803 12.1798 11.6627 12.4731 11.6539 12.5159C11.6422 12.577 11.6041 12.6075 11.4867 12.6503C11.3782 12.69 11.2843 12.7573 11.1699 12.8795C10.9704 13.0934 10.9 13.2736 10.9117 13.5731L10.9176 13.7778L10.7504 13.8664C10.4981 13.9978 10.0257 14.1842 9.67663 14.2881C8.15698 14.7433 6.46717 14.6089 5.0414 13.9184L4.78323 13.7931L4.7979 13.6189C4.8067 13.5242 4.82137 13.4386 4.8331 13.4295C4.84191 13.4172 5.0414 13.3317 5.27609 13.2339C6.69013 12.6473 8.06897 11.7673 9.20724 10.7223C9.66197 10.3037 10.3426 9.57953 10.6829 9.15176L10.9411 8.82787L11.0936 8.87065C11.1758 8.89204 11.2726 8.91037 11.3078 8.91037C11.3664 8.91037 11.3811 8.94093 11.4369 9.18842C11.4691 9.3412 11.5249 9.60703 11.5542 9.77814C11.6217 10.1631 11.6275 10.1815 11.7273 10.2242C11.8182 10.2609 11.9268 10.2304 11.9913 10.1509C12.0471 10.0806 12.0177 9.79647 11.8945 9.2312L11.7948 8.77288L11.8564 8.72093C11.8916 8.69038 11.9297 8.66593 11.9444 8.66593C11.9561 8.66593 12.0881 8.7576 12.2378 8.87065ZM4.13195 13.075C4.44879 13.2492 4.44879 13.7197 4.13195 13.8939C3.92659 14.01 3.66843 13.9275 3.54815 13.7075C3.44253 13.512 3.47774 13.292 3.63909 13.1361C3.78578 12.9925 3.94713 12.9711 4.13195 13.075ZM12.0705 13.1575C12.1791 13.2675 12.2289 13.3806 12.2289 13.5303C12.2289 13.9886 11.6422 14.1536 11.4046 13.7625C11.3576 13.6831 11.3488 13.625 11.3576 13.4814C11.3664 13.3164 11.3782 13.292 11.4926 13.1789C11.6158 13.0598 11.6217 13.0598 11.8036 13.072C11.9532 13.0811 12.0089 13.0995 12.0705 13.1575Z" fill="#CACACA" stroke="#CACACA" stroke-width="4" mask="url(#path-1-inside-1_170_279)"/>
</svg>
