<svg width="15" height="15" viewBox="0 0 15 15" fill="none" xmlns="http://www.w3.org/2000/svg">
    <path d="M7.05931 0.00973892C6.35618 0.100606 5.70286 0.332172 5.1638 0.683919C4.14427 1.34638 3.47337 2.34299 3.23313 3.55358C3.15989 3.91999 3.15989 4.74073 3.23313 5.10713C3.42649 6.07443 3.94212 6.99191 4.62473 7.56936C4.73899 7.66609 4.83274 7.75402 4.83274 7.76282C4.83274 7.77161 4.75657 7.79799 4.66575 7.81851C3.56126 8.0618 2.32786 8.62753 1.47825 9.28119C0.745828 9.84398 0.282938 10.5416 0.0807892 11.3946C-0.00417175 11.7551 -0.0305389 13.2764 0.0427033 13.6077C0.118875 13.9506 0.26536 14.2174 0.523172 14.4724C0.778055 14.7274 1.00364 14.8564 1.3347 14.9414C1.55735 15 1.6804 15 7.49876 15C13.3171 15 13.4402 15 13.6628 14.9414C13.9939 14.8564 14.2195 14.7274 14.4743 14.4724C14.7322 14.2174 14.8786 13.9506 14.9548 13.6077C15.031 13.2764 15.0017 11.7581 14.9167 11.3946C14.6267 10.1664 13.8181 9.28412 12.2947 8.53373C11.8962 8.33734 11.7908 8.31389 11.5974 8.3813C11.4304 8.437 11.3337 8.52493 11.2605 8.68029C11.1697 8.87375 11.1726 9.00272 11.2634 9.18739C11.3513 9.36326 11.3835 9.38671 11.8347 9.60949C12.2156 9.80001 12.696 10.1107 12.9685 10.3452C13.3054 10.6296 13.5456 10.9725 13.6833 11.3594C13.8093 11.72 13.8327 11.9515 13.821 12.7283C13.8122 13.4083 13.8093 13.4347 13.7419 13.5432C13.7038 13.6047 13.6189 13.6897 13.5544 13.7337L13.4343 13.8129H7.49876H1.56321L1.44309 13.7337C1.37864 13.6897 1.29368 13.6047 1.25559 13.5432C1.18821 13.4347 1.18528 13.4083 1.17649 12.7283C1.16477 11.9662 1.18821 11.7317 1.3054 11.3887C1.4343 11.0106 1.67747 10.6471 1.96751 10.3951C2.76731 9.70328 3.9802 9.14635 5.2429 8.89134C5.89622 8.7565 6.42063 8.70081 7.33763 8.66856C8.15208 8.63925 8.42454 8.59528 8.93723 8.41648C10.3933 7.90938 11.4538 6.66654 11.7644 5.10713C11.8376 4.74073 11.8376 3.91999 11.7644 3.55358C11.4099 1.77433 10.1091 0.449422 8.3513 0.077157C8.07591 0.0214634 7.30247 -0.0195732 7.05931 0.00973892ZM8.27513 1.2643C8.95481 1.44017 9.59934 1.8652 10.0212 2.42213C10.2263 2.6918 10.4724 3.20477 10.5661 3.55358C10.6335 3.81446 10.6423 3.89947 10.6423 4.33036C10.6423 4.76125 10.6335 4.84625 10.5661 5.10713C10.4724 5.45595 10.2263 5.96891 10.0212 6.23858C9.83958 6.47601 9.5261 6.77793 9.28294 6.93914C9.01927 7.12088 8.59446 7.31141 8.26927 7.39935C8.01438 7.46676 7.92649 7.47556 7.49876 7.47556C7.07102 7.47556 6.98313 7.46676 6.72825 7.39935C6.40306 7.31141 5.97825 7.12088 5.71458 6.93914C5.47141 6.77793 5.15794 6.47601 4.9763 6.23858C4.77122 5.96891 4.52513 5.45595 4.43138 5.10713C4.36399 4.84625 4.3552 4.76125 4.3552 4.33036C4.3552 3.89947 4.36399 3.81446 4.43138 3.55358C4.52513 3.20477 4.77122 2.6918 4.9763 2.42213C5.46556 1.77726 6.2302 1.32293 7.04759 1.19395C7.35227 1.14705 7.947 1.18223 8.27513 1.2643Z" fill="#CACACA"/>
</svg>
