<svg width="19" height="18" viewBox="0 0 19 18" fill="none" xmlns="http://www.w3.org/2000/svg">
    <g clip-path="url(#clip0_38_2827)">
        <path d="M13.5906 9.63063C13.5918 8.95194 13.8089 8.29124 14.2106 7.74417C14.6122 7.19708 15.1776 6.79202 15.8247 6.58759C15.574 6.12574 15.2286 5.72197 14.8113 5.40265C14.3939 5.08333 13.9138 4.85564 13.4025 4.73447C12.8911 4.6133 12.3599 4.60136 11.8437 4.69943C11.3274 4.79749 10.8376 5.00337 10.4063 5.30361C10.2111 5.41631 9.98967 5.47563 9.76428 5.47563C9.5389 5.47563 9.31747 5.41631 9.12229 5.30361C8.65543 5.0075 8.13186 4.81224 7.58513 4.73031C7.0384 4.6484 6.48058 4.68165 5.94745 4.82792C5.41431 4.9742 4.91764 5.23029 4.48927 5.57975C4.06089 5.9292 3.71028 6.36434 3.45991 6.85723C2.74466 8.17451 2.50008 9.69635 2.76657 11.1714C2.98295 13.1973 3.85801 15.0963 5.2575 16.577C5.71884 17.0147 6.3206 17.2743 6.95553 17.3095C7.59045 17.3447 8.21727 17.1534 8.72426 16.7696C9.016 16.5538 9.3693 16.4373 9.73218 16.4373C10.0951 16.4373 10.4484 16.5538 10.7401 16.7696C11.2266 17.1626 11.8367 17.3706 12.4619 17.3564C13.0872 17.3423 13.6872 17.1071 14.1556 16.6925C15.2125 15.6255 15.9661 14.2958 16.3383 12.8406C15.567 12.734 14.8615 12.3485 14.3554 11.757C13.849 11.1656 13.577 10.4091 13.5906 9.63063Z" stroke="white" stroke-width="2" stroke-linecap="round" stroke-linejoin="round"/>
        <path d="M11.0225 2.5688L12.9484 0.642822" stroke="white" stroke-width="2" stroke-linecap="round" stroke-linejoin="round"/>
    </g>
    <defs>
        <clipPath id="clip0_38_2827">
            <rect width="18" height="18" fill="white" transform="translate(0.5)"/>
        </clipPath>
    </defs>
</svg>
