<svg width="20" height="20" viewBox="0 0 20 20" fill="none" xmlns="http://www.w3.org/2000/svg">
<path d="M5.45304 5.4463C6.86579 4.52827 8.50278 3.84619 10.25 3.84619C14.2204 3.84619 17.6216 7.36835 19.1158 9.17746C19.3517 9.47164 19.4824 9.85384 19.4824 10.2501C19.4824 10.6464 19.3517 11.0286 19.1158 11.3228C18.2921 12.32 16.889 13.8377 15.1306 14.9991M12.3846 16.3261C11.6981 16.5338 10.9838 16.654 10.25 16.654C6.27961 16.654 2.87845 13.1319 1.38422 11.3228C1.14822 11.0286 1.01758 10.6464 1.01758 10.2501C1.01758 9.85384 1.14822 9.47164 1.38422 9.17746C1.85764 8.60428 2.52247 7.85914 3.33618 7.10855" stroke="white" stroke-linecap="round" stroke-linejoin="round"/>
<path d="M12.2629 12.2625C13.3743 11.151 13.3743 9.34891 12.2629 8.23742C11.1514 7.12594 9.34929 7.12594 8.23779 8.23742" stroke="white" stroke-linecap="round" stroke-linejoin="round"/>
<path d="M19.5 19.5L1 1" stroke="white" stroke-linecap="round" stroke-linejoin="round"/>
</svg>
