<svg width="19" height="19" viewBox="0 0 19 19" fill="none" xmlns="http://www.w3.org/2000/svg">
<g clip-path="url(#clip0_38_2792)">
<path d="M17.4827 8.25393C17.7018 8.5271 17.8231 8.882 17.8231 9.24997C17.8231 9.61795 17.7018 9.97285 17.4827 10.246C16.0952 11.9259 12.937 15.1965 9.2502 15.1965C5.56341 15.1965 2.4052 11.9259 1.0177 10.246C0.798552 9.97285 0.677246 9.61795 0.677246 9.24997C0.677246 8.882 0.798552 8.5271 1.0177 8.25393C2.4052 6.57404 5.56341 3.30347 9.2502 3.30347C12.937 3.30347 16.0952 6.57404 17.4827 8.25393Z" stroke="white" stroke-linecap="round" stroke-linejoin="round"/>
<path d="M9.25028 11.8926C10.7099 11.8926 11.8931 10.7094 11.8931 9.24979C11.8931 7.79018 10.7099 6.60693 9.25028 6.60693C7.79067 6.60693 6.60742 7.79018 6.60742 9.24979C6.60742 10.7094 7.79067 11.8926 9.25028 11.8926Z" stroke="white" stroke-linecap="round" stroke-linejoin="round"/>
</g>
<defs>
<clipPath id="clip0_38_2792">
<rect width="18.5" height="18.5" fill="white"/>
</clipPath>
</defs>
</svg>
