<svg width="24" height="24" viewBox="0 0 24 24" fill="none" xmlns="http://www.w3.org/2000/svg">
    <g clip-path="url(#clip0_193_322)">
        <path d="M16.3896 12.0001C16.3896 13.5501 17.6496 14.8101 19.1896 14.8101C20.7396 14.8101 21.9996 13.5501 21.9996 12.0001C21.9996 10.4501 20.7396 9.19006 19.1896 9.19006C17.6496 9.19006 16.3896 10.4501 16.3896 12.0001Z" fill="#CACACA"/>
        <path d="M14.8104 12.0001C14.8104 10.4481 13.5523 9.19006 12.0004 9.19006C10.4485 9.19006 9.19043 10.4481 9.19043 12.0001C9.19043 13.552 10.4485 14.8101 12.0004 14.8101C13.5523 14.8101 14.8104 13.552 14.8104 12.0001Z" fill="#CACACA"/>
        <path d="M2 12.0001C2 13.5501 3.26 14.8101 4.81 14.8101C6.35 14.8101 7.60999 13.5501 7.60999 12.0001C7.60999 10.4501 6.35 9.19006 4.81 9.19006C3.26 9.19006 2 10.4501 2 12.0001Z" fill="#CACACA"/>
    </g>
    <defs>
        <clipPath id="clip0_193_322">
            <rect width="24" height="24" fill="white" transform="matrix(0 -1 1 0 0 24)"/>
        </clipPath>
    </defs>
</svg>
