<svg width="25" height="25" viewBox="0 0 25 25" fill="none" xmlns="http://www.w3.org/2000/svg">
    <g clip-path="url(#clip0_84_264)">
        <path fill-rule="evenodd" clip-rule="evenodd" d="M2.80932 2.80932C2.89305 2.72561 3.00661 2.67857 3.125 2.67857H5.80357C6.54323 2.67857 7.14286 2.07895 7.14286 1.33929C7.14286 0.599618 6.54323 0 5.80357 0H3.125C2.2962 0 1.50134 0.329241 0.915291 0.915291C0.329241 1.50134 0 2.2962 0 3.125V5.80357C0 6.54323 0.599618 7.14286 1.33929 7.14286C2.07895 7.14286 2.67857 6.54323 2.67857 5.80357V3.125C2.67857 3.00661 2.72561 2.89305 2.80932 2.80932ZM25 19.1964C25 18.4568 24.4004 17.8571 23.6607 17.8571C22.9211 17.8571 22.3214 18.4568 22.3214 19.1964V21.875C22.3214 21.9934 22.2745 22.107 22.1907 22.1907C22.107 22.2745 21.9934 22.3214 21.875 22.3214H19.1964C18.4568 22.3214 17.8571 22.9211 17.8571 23.6607C17.8571 24.4004 18.4568 25 19.1964 25H21.875C22.7038 25 23.4986 24.6707 24.0846 24.0846C24.6707 23.4986 25 22.7038 25 21.875V19.1964ZM1.33929 17.8571C2.07895 17.8571 2.67857 18.4568 2.67857 19.1964V21.875C2.67857 21.9934 2.72561 22.107 2.80932 22.1907C2.89305 22.2745 3.00661 22.3214 3.125 22.3214H5.80357C6.54323 22.3214 7.14286 22.9211 7.14286 23.6607C7.14286 24.4004 6.54323 25 5.80357 25H3.125C2.2962 25 1.50134 24.6707 0.915291 24.0846C0.329241 23.4986 0 22.7038 0 21.875V19.1964C0 18.4568 0.599618 17.8571 1.33929 17.8571ZM19.1964 0C18.4568 0 17.8571 0.599618 17.8571 1.33929C17.8571 2.07895 18.4568 2.67857 19.1964 2.67857H21.875C21.9934 2.67857 22.107 2.72561 22.1907 2.80932C22.2745 2.89305 22.3214 3.00661 22.3214 3.125V5.80357C22.3214 6.54323 22.9211 7.14286 23.6607 7.14286C24.4004 7.14286 25 6.54323 25 5.80357V3.125C25 2.2962 24.6707 1.50134 24.0846 0.915291C23.4986 0.329241 22.7038 0 21.875 0H19.1964ZM12.4983 13.8866C9.10714 13.8866 6.21534 16.0247 5.09746 19.0264C4.89861 19.5604 5.32414 20.0896 5.89398 20.0896H19.1027C19.6725 20.0896 20.098 19.5604 19.8991 19.0264C18.7812 16.0247 15.8895 13.8866 12.4983 13.8866ZM16.443 7.96529C16.443 10.1454 14.6757 11.9127 12.4956 11.9127C10.3155 11.9127 8.54816 10.1454 8.54816 7.96529C8.54816 5.78518 10.3155 4.01786 12.4956 4.01786C14.6757 4.01786 16.443 5.78518 16.443 7.96529Z" fill="white"/>
    </g>
    <defs>
        <clipPath id="clip0_84_264">
            <rect width="25" height="25" fill="white"/>
        </clipPath>
    </defs>
</svg>
