<svg width="26" height="30" viewBox="0 0 26 30" fill="none" xmlns="http://www.w3.org/2000/svg">
    <path d="M11.3594 16.0051L9.21094 13.8812C8.89844 13.5778 8.5276 13.426 8.09844 13.426C7.66823 13.426 7.29687 13.5778 6.98437 13.8812C6.67187 14.1846 6.50937 14.5446 6.49687 14.9613C6.48333 15.379 6.63281 15.7396 6.94531 16.043L10.2656 19.2668C10.5781 19.5702 10.9427 19.7219 11.3594 19.7219C11.776 19.7219 12.1406 19.5702 12.4531 19.2668L19.0938 12.8192C19.4062 12.5158 19.5625 12.1552 19.5625 11.7375C19.5625 11.3209 19.4062 10.9608 19.0938 10.6574C18.7812 10.354 18.4104 10.2023 17.9812 10.2023C17.551 10.2023 17.1797 10.354 16.8672 10.6574L11.3594 16.0051ZM13 30H12.6094C12.4792 30 12.362 29.9747 12.2578 29.9241C8.84635 28.8875 6.03385 26.8329 3.82031 23.7603C1.60677 20.6888 0.5 17.2946 0.5 13.5778V6.40961C0.5 5.7775 0.689062 5.2086 1.06719 4.70291C1.44427 4.19722 1.93229 3.83059 2.53125 3.60303L11.9062 0.189633C12.2708 0.0632111 12.6354 0 13 0C13.3646 0 13.7292 0.0632111 14.0938 0.189633L23.4688 3.60303C24.0677 3.83059 24.5563 4.19722 24.9344 4.70291C25.3115 5.2086 25.5 5.7775 25.5 6.40961V13.5778C25.5 17.2946 24.3932 20.6888 22.1797 23.7603C19.9661 26.8329 17.1536 28.8875 13.7422 29.9241C13.612 29.9747 13.3646 30 13 30Z" fill="#CACACA"/>
</svg>
