<svg width="16" height="16" viewBox="0 0 16 16" fill="none" xmlns="http://www.w3.org/2000/svg">
    <path d="M7.07562 2.14C7.19277 2.0113 7.33551 1.90849 7.49468 1.83814C7.65386 1.76778 7.82597 1.73145 8 1.73145C8.17403 1.73145 8.34614 1.76778 8.50532 1.83814C8.66449 1.90849 8.80723 2.0113 8.92437 2.14L9.56187 2.84C9.68565 2.97588 9.83788 3.0828 10.0077 3.15313C10.1775 3.22345 10.3608 3.25546 10.5444 3.24687L11.49 3.20312C11.6638 3.19494 11.8373 3.22311 11.9996 3.28584C12.1618 3.34857 12.3092 3.44448 12.4323 3.56743C12.5554 3.69038 12.6514 3.83767 12.7143 3.99986C12.7772 4.16206 12.8055 4.3356 12.7975 4.50937L12.7531 5.45562C12.7445 5.63923 12.7765 5.82248 12.8469 5.9923C12.9172 6.16212 13.0241 6.31435 13.16 6.43812L13.86 7.07562C13.9887 7.19277 14.0915 7.33551 14.1619 7.49468C14.2322 7.65386 14.2686 7.82597 14.2686 8C14.2686 8.17403 14.2322 8.34614 14.1619 8.50532C14.0915 8.66449 13.9887 8.80723 13.86 8.92437L13.16 9.56187C13.0241 9.68565 12.9172 9.83788 12.8469 10.0077C12.7765 10.1775 12.7445 10.3608 12.7531 10.5444L12.7969 11.49C12.8051 11.6638 12.7769 11.8373 12.7142 11.9996C12.6514 12.1618 12.5555 12.3092 12.4326 12.4323C12.3096 12.5554 12.1623 12.6514 12.0001 12.7143C11.8379 12.7772 11.6644 12.8055 11.4906 12.7975L10.5444 12.7531C10.3608 12.7445 10.1775 12.7765 10.0077 12.8469C9.83788 12.9172 9.68565 13.0241 9.56187 13.16L8.92437 13.86C8.80723 13.9887 8.66449 14.0915 8.50532 14.1619C8.34614 14.2322 8.17403 14.2686 8 14.2686C7.82597 14.2686 7.65386 14.2322 7.49468 14.1619C7.33551 14.0915 7.19277 13.9887 7.07562 13.86L6.43812 13.16C6.31435 13.0241 6.16212 12.9172 5.9923 12.8469C5.82248 12.7765 5.63923 12.7445 5.45562 12.7531L4.51 12.7969C4.33623 12.8051 4.16267 12.7769 4.00041 12.7142C3.83815 12.6514 3.69078 12.5555 3.56771 12.4326C3.44464 12.3096 3.34859 12.1623 3.2857 12.0001C3.22282 11.8379 3.19448 11.6644 3.2025 11.4906L3.24687 10.5444C3.25546 10.3608 3.22345 10.1775 3.15313 10.0077C3.0828 9.83788 2.97588 9.68565 2.84 9.56187L2.14 8.92437C2.0113 8.80723 1.90849 8.66449 1.83814 8.50532C1.76778 8.34614 1.73145 8.17403 1.73145 8C1.73145 7.82597 1.76778 7.65386 1.83814 7.49468C1.90849 7.33551 2.0113 7.19277 2.14 7.07562L2.84 6.43812C2.97588 6.31435 3.0828 6.16212 3.15313 5.9923C3.22345 5.82248 3.25546 5.63923 3.24687 5.45562L3.20312 4.51C3.19494 4.33623 3.22311 4.16267 3.28584 4.00041C3.34857 3.83815 3.44448 3.69078 3.56743 3.56771C3.69038 3.44464 3.83767 3.34859 3.99986 3.2857C4.16206 3.22282 4.3356 3.19448 4.50937 3.2025L5.45562 3.24687C5.63923 3.25546 5.82248 3.22345 5.9923 3.15313C6.16212 3.0828 6.31435 2.97588 6.43812 2.84L7.07562 2.14V2.14Z" stroke="#CACACA" stroke-width="1.2"/>
    <path d="M6.125 8L7.375 9.25L9.875 6.75" stroke="#CACACA" stroke-width="1.2" stroke-linecap="round" stroke-linejoin="round"/>
</svg>
