<svg width="25" height="25" viewBox="0 0 25 25" fill="none" xmlns="http://www.w3.org/2000/svg">
    <path d="M10.714 4.46423H4.46401C3.51681 4.46423 2.6084 4.8405 1.93863 5.51029C1.26885 6.18005 0.892578 7.08847 0.892578 8.03566V20.5357C0.892578 21.4828 1.26885 22.3912 1.93863 23.061C2.6084 23.7308 3.51681 24.1071 4.46401 24.1071H16.964C17.9111 24.1071 18.8195 23.7308 19.4894 23.061C20.1592 22.3912 20.5354 21.4828 20.5354 20.5357V14.2857" stroke="#CACACA" stroke-width="2" stroke-linecap="round" stroke-linejoin="round"/>
    <path d="M19.643 9.82139C22.1085 9.82139 24.1073 7.82266 24.1073 5.35711C24.1073 2.89155 22.1085 0.892822 19.643 0.892822C17.1774 0.892822 15.1787 2.89155 15.1787 5.35711C15.1787 7.82266 17.1774 9.82139 19.643 9.82139Z" stroke="#CACACA" stroke-width="2" stroke-linecap="round" stroke-linejoin="round"/>
</svg>
